<svg id="Layer_1" data-name="Layer 1" xmlns="http://www.w3.org/2000/svg" viewBox="0 0 498.19 136.8"><defs><style>.cls-1{fill:#1abc9c;}.cls-2{fill:#239b83;}.cls-3{fill:#232531;}</style></defs><title>php1</title><path class="cls-1" d="M24,109s43,31.3,105.74,27.48,106.35-21.22,119-58.44-44-62.78-44-62.78S162.58,0,124.67,0s-77.05,7.78-108,33.52S3.65,97.69,24,109Z"/><path class="cls-2" d="M308,82.22l-3.35,12H283.5c-1.95,0-3.87-.09-5.78-.26a38.44,38.44,0,0,1-5.46-.87,16.22,16.22,0,0,1-4.64-2,15.44,15.44,0,0,1-3.78-3.29,16.53,16.53,0,0,1-2.27-3.69A16,16,0,0,1,260.38,80a26.69,26.69,0,0,1-.43-4.67,28.49,28.49,0,0,1,.43-4.78,4.1,4.1,0,0,0,.17-.67,7.1,7.1,0,0,1,.16-.77,1.48,1.48,0,0,1,.05-.41,2.66,2.66,0,0,1,.16-.41.66.66,0,0,0,.17-.3,2,2,0,0,0,.05-.42,1.91,1.91,0,0,0,.16-.46,2.08,2.08,0,0,1,.16-.46,2,2,0,0,1,.06-.46,1.56,1.56,0,0,1,.16-.46c.14-.34.27-.67.38-1a5.71,5.71,0,0,1,.38-.87,34.42,34.42,0,0,1,5.07-9.24,34,34,0,0,1,3.62-4.26,31.44,31.44,0,0,1,4.37-3.65,32.85,32.85,0,0,1,5.62-3.33,26.94,26.94,0,0,1,5.73-1.9c1-.21,2-.39,3-.57a28.68,28.68,0,0,1,3-.36,26.72,26.72,0,0,1,2.91-.25c1,0,2-.05,2.92-.05l20.37-.1-3.18,11.1h-16l-.32,1h-3.11c-.73,0-1.45,0-2.17.05a14.73,14.73,0,0,0-2.18.26,2.57,2.57,0,0,0-.7.1l-.71.21c-.51.14-1,.29-1.47.46s-.92.36-1.36.57a18.3,18.3,0,0,0-4.18,2.69,15.43,15.43,0,0,0-3,3.41,40.79,40.79,0,0,0-2.12,3.92,23.21,23.21,0,0,0-1.47,4,18.54,18.54,0,0,0-.65,3.93,30.43,30.43,0,0,0,0,3.82,7.72,7.72,0,0,0,1.08,3.26,9.06,9.06,0,0,0,2.52,2.54,6.06,6.06,0,0,0,1,.57,11.82,11.82,0,0,0,2.58.76c.59.07,1.25.16,2,.27a15.25,15.25,0,0,0,2.13.15h3.82v-1Z"/><path class="cls-2" d="M349.43,20.22l-5.62,20h13.43a39.12,39.12,0,0,1,9.38,1.18,17.85,17.85,0,0,1,6.57,3.12,8.75,8.75,0,0,1,3.13,5.94,25.39,25.39,0,0,1-1,9.64l-9.6,34.12H350.66l9.16-32.58a14.72,14.72,0,0,0,.7-4.4,5.07,5.07,0,0,0-.81-2.87A4.94,4.94,0,0,0,357,52.73a17.72,17.72,0,0,0-4.64-.51l-11.85-.11L328.67,94.22H313.73l20.82-74Z"/><path class="cls-2" d="M425.81,40.22c1.58.07,3.14.19,4.69.36a37.2,37.2,0,0,1,4.47.76,10.78,10.78,0,0,1,3.88,1.54A13.61,13.61,0,0,1,442,45.75a10.29,10.29,0,0,1,1.78,3.13,13.21,13.21,0,0,1,.7,3.63,21.88,21.88,0,0,1-.16,4,33.74,33.74,0,0,1-.81,4L434,94.22H393.68a22.1,22.1,0,0,1-7.51-1.14,9.49,9.49,0,0,1-6.64-9,20.6,20.6,0,0,1,1.3-7.29,24.23,24.23,0,0,1,4.36-8.07,16,16,0,0,1,6.42-4.66,41,41,0,0,1,7.78-2.17,49.81,49.81,0,0,1,8.65-.72l19.58-.11a10.68,10.68,0,0,0,.8-5.35,3.72,3.72,0,0,0-2.09-2.91,16.37,16.37,0,0,0-4.08-1.23,32,32,0,0,0-5.37-.4L392,51.12,395,40.22Zm-4.89,43,3.08-11H407.05s-.15.07-.22,1h-.65a3.17,3.17,0,0,0-3-.58,21.68,21.68,0,0,0-3,.77A5.14,5.14,0,0,0,397.83,75a7.78,7.78,0,0,0-1.56,2.92,5.68,5.68,0,0,0-.49,3.18,1.89,1.89,0,0,0,1.45,1.54,14.89,14.89,0,0,0,2.59.61c.94.14,2.63.21,2.63.21v-.24Z"/><path class="cls-2" d="M467.09,40.22l5.62-20H488l-5.61,20h15.78l-3.09,11H479.29l-6.22,22.1a16,16,0,0,0-1,6.54,3.32,3.32,0,0,0,2.18,3,17,17,0,0,0,4.42,1,57.09,57.09,0,0,0,6.28.31h.8l-2.73,10H469.22A20.12,20.12,0,0,1,462,93.1a9,9,0,0,1-4.4-3.37,10.75,10.75,0,0,1-1.72-5.3,20.94,20.94,0,0,1,.86-6.92l7.51-26.29H453.7l3.08-11Z"/><path class="cls-3" d="M83.83,42.22a27,27,0,0,1,9.33,1.6,13.85,13.85,0,0,1,6.15,4.46,15.14,15.14,0,0,1,2.81,7.09,25.25,25.25,0,0,1-.65,9.23,27.62,27.62,0,0,1-1.36,4.68A47.88,47.88,0,0,1,98,73.88a40.83,40.83,0,0,1-3,4.32,27.71,27.71,0,0,1-3.71,3.88,27.67,27.67,0,0,1-5.16,3.79A20.23,20.23,0,0,1,80.82,88a44.39,44.39,0,0,1-5.44.93,50.46,50.46,0,0,1-5.63.32H58.57l-4.8,17h-13l18-64Zm-23,37.91a1.06,1.06,0,0,1,.33,0,1.16,1.16,0,0,0,.34,0h1.89a60.8,60.8,0,0,0,8.29-.36,43.84,43.84,0,0,0,7-1.35A10.61,10.61,0,0,0,84,74.28a28.72,28.72,0,0,0,3.79-8.91q1.13-4.77.47-7.47a4.36,4.36,0,0,0-3.13-3.42,31.11,31.11,0,0,0-5.63-1q-3.18-.31-7-.31a7,7,0,0,1-1.09.09h-3v-.09Z"/><path class="cls-3" d="M133.53,26.22l-4.77,17h11.59a34.39,34.39,0,0,1,8.16,1A15.77,15.77,0,0,1,154.23,47,7.63,7.63,0,0,1,157,52.13a21.94,21.94,0,0,1-.84,8.39l-8.35,29.7h-13l8.07-28.7a12.9,12.9,0,0,0,.62-3.88,4.44,4.44,0,0,0-.71-2.53,4.36,4.36,0,0,0-2.38-1.44,15.44,15.44,0,0,0-4.08-.45l-10.44-.09L115.36,90.22H102.63l18-64Z"/><path class="cls-3" d="M197.36,42.22a27,27,0,0,1,9.34,1.6,13.87,13.87,0,0,1,6.14,4.46,15.26,15.26,0,0,1,2.82,7.09A25.49,25.49,0,0,1,215,64.6a25.9,25.9,0,0,1-1.36,4.68,45.56,45.56,0,0,1-2.11,4.6,39.38,39.38,0,0,1-3,4.32,27.63,27.63,0,0,1-3.7,3.88,27.67,27.67,0,0,1-5.16,3.79,20.36,20.36,0,0,1-5.35,2.1,44.72,44.72,0,0,1-5.44.93,50.73,50.73,0,0,1-5.63.32H172.11l-4.8,17h-13l18-64ZM174.87,80.13a1.06,1.06,0,0,1,.33,0,1.16,1.16,0,0,0,.34,0h1.89a60.8,60.8,0,0,0,8.29-.36,43.84,43.84,0,0,0,7-1.35,10.61,10.61,0,0,0,5.3-4.23,28.72,28.72,0,0,0,3.79-8.91q1.13-4.77.47-7.47a4.36,4.36,0,0,0-3.13-3.42,31.11,31.11,0,0,0-5.63-1q-3.18-.31-7-.31a7,7,0,0,1-1.09.09h-3v-.09Z"/></svg>